<svg xmlns="http://www.w3.org/2000/svg" style="isolation:isolate" viewBox="3 12 530 68.03999999999999" width="530" height="68.04"><path d="M42.24 29.64q-.78.42-1.14.66-.36.24-.66.6-.48.48-.6 1.02t-.12 2.04v17.28q0 1.74-.03 3.12-.03 1.38-.09 2.34-.12 3.24-.66 5.49t-1.68 4.29q-1.02 1.86-2.55 3.42-1.53 1.56-3.39 2.73t-3.99 1.86q-2.13.69-4.29.87v-1.02q1.8-.12 3-.69t2.28-1.89q.36-.48.63-.99t.51-.99q.3-.72.48-1.41t.3-1.74q.12-1.05.18-2.58t.12-3.93l.12-5.7V32.28l-2.34-2.76-2.28 2.04v26.58l.06-.06q.24-.24.48-.51t.54-.63q.66-.66 1.02-1.05t1.08-1.05l.54.66q-.9.96-1.59 1.65-.69.69-1.23 1.26-.54.57-1.02 1.14t-1.02 1.23l-2.88 3.48-1.68 2.04-1.86-2.04q-1.26-1.38-3.21-2.19t-4.05-.81q-2.28 0-3.63 1.08t-1.35 2.82q0 2.7 2.61 4.14 2.61 1.44 7.47 1.44 2.16 0 4.5-.36 1.5-.3 2.4-.66.9-.36 1.62-1.08.84-.84 1.17-1.89.33-1.05.45-2.97h.72q0 1.98-.18 3.03-.18 1.05-.72 2.25-1.26 2.88-3.72 4.38t-5.88 1.5q-2.52 0-4.59-.75t-3.54-2.1q-1.47-1.35-2.25-3.27t-.78-4.26q0-7.32 5.58-10.5.66-.42.84-.54.18-.12.48-.42l.54-.9q.12-.3.18-.51.06-.21.09-.48t.03-.69V46.5h-2.58q-2.22 0-3 .96-.3.3-.39.87-.09.57-.09 1.77v.72h-.66v-1.86q0-.78.03-1.62.03-.84.09-1.86.06-1.62.24-2.49.18-.87.6-1.65.96-1.68 3.48-1.68h2.28v-5.1q0-1.2-.33-1.65-.33-.45-1.35-.39l-1.2.06q-1.08.06-1.83-.33t-1.2-1.32Q6.9 30 6.72 28.5t-.18-3.72V22.2h.96v.48q0 .78.27 1.02t1.11.24h.36l4.5-.18q.96-.06 1.77-.06h1.47q1.8 0 2.79.27t1.71.93q.54.48.69 1.17.15.69.15 2.55v5.34l12.54-11.28q.48.72.84 1.2t.72.9q.36.42.81.9.45.48 1.11 1.08.6.6 1.05.99.45.39.84.69.39.3.87.57.48.27 1.14.63zM25.32 32.1l-3 2.88v17.34q-.9-.12-1.41-.15-.51-.03-.99-.03-1.2 0-2.34.18-1.2.18-2.19.48t-2.61 1.02l-.18.06h.18q.54 0 1.02-.03t.84-.03q2.7 0 5.28.69t3.96 1.77l1.38 1.08.06.06V32.1zm59.22 12.48q-4.44.54-5.04 4.98h-.72q0-.3.03-.54.03-.24.03-.48 0-1.74-.81-2.97-.81-1.23-1.95-1.23-1.74 0-1.74 2.28v17.34q.84-.54 1.47-.96.63-.42 1.14-.84.51-.42.99-.93t1.02-1.17q1.74-2.16 2.67-4.38.93-2.22 1.23-5.28h.84q-.42 3.72-1.92 6.72-1.5 3-3.81 5.16t-5.37 3.33q-3.06 1.17-6.66 1.17-4.5 0-8.19-1.5-3.69-1.5-6.36-4.2-2.67-2.7-4.14-6.48-1.47-3.78-1.47-8.34 0-4.56 1.5-8.67t4.26-7.05q1.2-1.32 2.79-2.49 1.59-1.17 3.3-2.07 1.71-.9 3.51-1.53 1.8-.63 3.42-.81v1.02q-3.78.42-5.64 2.67-1.86 2.25-2.58 7.35.72-.3 1.23-.48t.87-.3q.78-.3 1.89-.78 1.11-.48 2.67-1.14 3.06-1.32 4.5-2.16 1.02-.6 2.25-1.32 1.23-.72 2.61-1.68.78-.54 1.29-.93t.9-.72q.39-.33.78-.69.39-.36.87-.84.6 2.52 1.83 4.14 1.23 1.62 2.61 1.62.9 0 1.56-1.08t.66-2.52v-.24h.84q-.36 3.78-2.4 6.15-2.04 2.37-4.92 2.37-.66 0-2.04-.24v8.46q1.02-1.08 1.32-1.41.3-.33.78-.69 1.32-1.02 3-1.02 2.16 0 3.48 1.41 1.32 1.41 1.62 3.99zM73.5 33.54q-.72-.42-1.08-.75-.36-.33-.84-1.05-.48-.66-.69-1.08-.21-.42-.45-1.26l-.66.36V56.4l-12.12 3.3q1.08 1.68 1.83 2.46t1.95 1.62q1.32.84 3 1.38 1.68.54 3.24.54 1.56 0 3.09-.42 1.53-.42 2.73-1.08V33.54zm-12.78.3l-4.32 1.68q-.18 1.44-.27 2.52-.09 1.08-.12 2.1l-.06 2.1q-.03 1.08-.03 2.58v3.06q0 1.5.12 3 .06 1.32.15 2.28.09.96.24 1.8.15.84.39 1.74.24.9.6 2.1l3.3-.84V33.84zm60.24 7.5q-.84.48-1.2.72t-.84.6q-.54.36-.87.69-.33.33-.48.78-.15.45-.21 1.08-.06.63-.06 1.65v9.6q.6-.06.9-.06h1.35q.33 0 .93.06v1.02q-.66-.06-1.05-.09t-.75-.03q-2.64 0-5.31.6-2.67.6-4.53 1.62-1.62.84-3.12 2.4-.66.66-1.08 1.17-.42.51-.75 1.02t-.57 1.14q-.24.63-.54 1.53-.66-1.14-1.2-1.98-.54-.84-1.11-1.44-.57-.6-1.2-1.05-.63-.45-1.47-.87-1.38-.66-2.85-1.08-1.47-.42-2.67-.42-1.74 0-2.91 1.08-1.17 1.08-1.17 2.7 0 1.5.9 2.76.9 1.26 2.46 1.8 1.62.6 4.14.93 2.52.33 5.22.33 4.38 0 6.75-1.74t2.37-4.98h1.02q-.3 4.92-3.57 7.83t-8.61 2.91q-2.52 0-4.65-.81-2.13-.81-3.72-2.22-1.59-1.41-2.49-3.3-.9-1.89-.9-4.11 0-2.16.81-3.99t2.19-3.18q1.38-1.35 3.3-2.13 1.92-.78 4.2-.78 1.62 0 3.06.3t3.24 1.14V43.38q-.72.18-1.26.33-.54.15-.96.36-.42.21-.84.48t-.96.69q-.66.54-1.17 1.05-.51.51-.9 1.11-.39.6-.69 1.35-.3.75-.66 1.83-.42-1.32-1.08-2.52-.66-1.2-1.41-2.1-.75-.9-1.59-1.44-.84-.54-1.62-.54-.96 0-2.58 1.38l-.54-.78q.66-.36 1.08-.63.42-.27.69-.45.27-.18.51-.36t.54-.42q.84-.66 1.14-1.56.3-.9.3-2.58v-6.24q-.42.06-.69.06h-.51q-.54 0-1.08-.06t-1.44-.18v-.96q.84.12 1.35.15.51.03.99.03 2.7 0 5.34-.72 2.64-.72 4.68-1.92 1.62-.96 2.94-2.4.48-.48.84-.9.36-.42.69-.9.33-.48.66-1.05.33-.57.75-1.35.6 1.56 1.11 2.37.51.81 1.53 1.89 1.74 1.8 3.24 1.8 1.32 0 2.1-.96.36-.42.54-.99.18-.57.42-2.01h.9q-.3 4.5-2.64 7.14-2.34 2.64-6.06 2.64-.84 0-1.35-.18-.51-.18-1.47-.66v9.54q1.32-.12 2.01-.42.69-.3 1.71-1.26 1.08-.96 1.98-2.16.84-1.08 1.23-1.83t.87-2.13l.78 1.74 2.16 2.88q.84 1.08 1.44 1.56t1.14.48q1.08 0 2.4-1.14l.48.9zm-17.04-8.52q-.36-.24-.6-.39-.24-.15-.36-.27-.12-.12-.36-.39t-.72-.75q-.3-.36-.9-.9v7.68q0 1.32.12 2.01.12.69.48 1.35.36.78.84 1.11.48.33 1.5.45v-9.9zm4.26 15.12q0-1.56-.12-2.34-.12-.78-.42-1.2-.78-1.02-2.88-1.14v11.7q.72.54 1.2.87.48.33.84.66t.66.69q.3.36.72.9V47.94zm51.54-20.7q0 1.98-.6 3.66-.6 1.68-1.68 2.91-1.08 1.23-2.58 1.89-1.5.66-3.24.66h-1.08v26.88q3.24-2.46 4.74-5.46t1.62-7.08h.84v1.56q-.3 2.7-1.62 5.58-4.32 9-14.7 9-3.96 0-7.29-1.23t-5.73-3.45q-2.4-2.22-3.72-5.28-1.32-3.06-1.32-6.72 0-3.42 1.14-6.39 1.14-2.97 3.24-5.13 2.4-2.4 5.4-3.9 3-1.5 5.88-1.8v.9q-4.92.3-5.7 5.22L147 35.88q-2.1-.78-3.3-1.2-1.2-.42-2.52-1.08l-5.16-2.34q-1.92-.84-3.75-1.32-1.83-.48-3.09-.48-1.92 0-3.12 1.35-1.2 1.35-1.2 3.57v.78h-1.02q.12-2.58.72-4.26.6-1.68 1.98-3.3 1.92-2.28 4.44-3.33 2.52-1.05 5.94-1.05 2.7 0 5.34.75 2.64.75 6.12 2.49 3.48 1.8 4.32 2.16 1.08.48 2.58 1.02.72.24 1.38.24 1.2 0 1.68-.75t.54-2.67h.84v.78zm-9.96 9.06l-1.08-.12-2.4.72v20.28l-11.82 2.94q1.02 2.52 3.48 3.96t5.7 1.44q1.74 0 3.06-.39t3.06-1.41V36.3zm-12.54 2.76l-3.96.96q-.18 1.38-.3 2.4t-.18 1.95q-.06.93-.09 1.86t-.03 2.07q0 2.04.06 3.42t.18 2.55q.12 1.17.39 2.34t.75 2.79l3.18-.78V39.06zm62.46 5.52q-4.44.54-5.04 4.98h-.72q0-.3.03-.54.03-.24.03-.48 0-1.74-.81-2.97-.81-1.23-1.95-1.23-1.74 0-1.74 2.28v17.34q.84-.54 1.47-.96.63-.42 1.14-.84.51-.42.99-.93t1.02-1.17q1.74-2.16 2.67-4.38.93-2.22 1.23-5.28h.84q-.42 3.72-1.92 6.72-1.5 3-3.81 5.16t-5.37 3.33q-3.06 1.17-6.66 1.17-4.5 0-8.19-1.5-3.69-1.5-6.36-4.2-2.67-2.7-4.14-6.48-1.47-3.78-1.47-8.34 0-4.56 1.5-8.67t4.26-7.05q1.2-1.32 2.79-2.49 1.59-1.17 3.3-2.07 1.71-.9 3.51-1.53 1.8-.63 3.42-.81v1.02q-3.78.42-5.64 2.67-1.86 2.25-2.58 7.35.72-.3 1.23-.48t.87-.3q.78-.3 1.89-.78 1.11-.48 2.67-1.14 3.06-1.32 4.5-2.16 1.02-.6 2.25-1.32 1.23-.72 2.61-1.68.78-.54 1.29-.93t.9-.72q.39-.33.78-.69.39-.36.87-.84.6 2.52 1.83 4.14 1.23 1.62 2.61 1.62.9 0 1.56-1.08t.66-2.52v-.24h.84q-.36 3.78-2.4 6.15-2.04 2.37-4.92 2.37-.66 0-2.04-.24v8.46q1.02-1.08 1.32-1.41.3-.33.78-.69 1.32-1.02 3-1.02 2.16 0 3.48 1.41 1.32 1.41 1.62 3.99zm-11.04-11.04q-.72-.42-1.08-.75-.36-.33-.84-1.05-.48-.66-.69-1.08-.21-.42-.45-1.26l-.66.36V56.4l-12.12 3.3q1.08 1.68 1.83 2.46t1.95 1.62q1.32.84 3 1.38 1.68.54 3.24.54 1.56 0 3.09-.42 1.53-.42 2.73-1.08V33.54zm-12.78.3l-4.32 1.68q-.18 1.44-.27 2.52-.09 1.08-.12 2.1l-.06 2.1q-.03 1.08-.03 2.58v3.06q0 1.5.12 3 .06 1.32.15 2.28.09.96.24 1.8.15.84.39 1.74.24.9.6 2.1l3.3-.84V33.84zm58.26 33.24l-4.08-3.66q-.66-.48-1.14-1.38-.3-.66-.36-1.02 0-.12-.03-.36t-.03-.6v-9.78q0-4.92-3.84-4.92-.24 0-.51.03t-.69.09v13.56l3.3-3.48.6.66-9.66 10.86q-1.2-1.38-1.83-2.04-.63-.66-1.47-1.26-1.38-1.02-3-1.59-1.62-.57-3.06-.57-1.92 0-3.15 1.11t-1.23 2.85q0 2.58 2.64 3.66.6.3 1.26.45.66.15 1.56.24t2.16.12q1.26.03 3.06.03t3.15-.12q1.35-.12 2.34-.39.99-.27 1.71-.72.72-.45 1.32-1.11 1.62-1.8 1.62-4.44v-.54q0-.3-.06-.66h1.02q.06.48.09.78.03.3.03.6 0 2.4-.93 4.44-.93 2.04-2.55 3.57-1.62 1.53-3.81 2.4-2.19.87-4.71.87-2.28 0-4.23-.78-1.95-.78-3.39-2.16-1.44-1.38-2.25-3.27-.81-1.89-.81-4.11 0-2.76 1.44-5.46t3.78-4.26q1.08-.78 1.26-.96.36-.24.6-.78.24-.48.3-.99t.06-1.71v-4.44h-3.18q-1.92 0-2.49.69-.57.69-.63 2.97h-.78v-1.92q0-4.74 1.05-6.63 1.05-1.89 3.69-1.89h2.34v-5.04q0-1.56-1.38-1.56h-.42q-.3 0-.78.06h-.36q-1.86 0-2.7-.66-1.5-1.32-1.5-7.32v-.84q0-.42.06-1.14h.78q.06.84.54 1.17.48.33 1.86.33.3 0 .48-.06l2.94-.12 4.08-.3h.54q2.4 0 3.72 1.14.78.66 1.02 1.53t.24 2.85v4.44l2.4-1.98q2.16-1.8 3.6-3.06.96-.9 1.68-1.56t1.35-1.29q.63-.63 1.26-1.35.63-.72 1.47-1.74l1.68 1.05q.72.45 1.26.9t.96.93q.42.48.9 1.08 1.14 1.5 1.77 3.42.63 1.92.63 3.9 0 4.5-3.24 7.26-.66.54-1.29.99-.63.45-1.41.87-.78.42-1.8.84t-2.46.96q2.64.3 4.38.75 1.74.45 2.79 1.23t1.5 1.98q.45 1.2.45 2.94v4.56q0 2.52 1.26 2.52.48 0 .96-.45t1.62-1.83l.84.66-8.16 9.96zm-4.56-30.54q0-2.76-1.08-4.41-1.08-1.65-2.82-1.65-.66 0-1.11.21-.45.21-1.11.87v13.2q3.24-.12 4.68-2.04 1.44-1.92 1.44-6.18zm-6.9-4.44l-2.94 2.52V52.2h-1.44q-.54 0-1.26.03t-1.62.15q-.78.12-1.32.21t-1.05.27q-.51.18-1.08.39-.57.21-1.35.57h1.44q2.04 0 4.74.96.96.36 1.65.66.69.3 1.35.66.66.36 1.32.84t1.56 1.2V32.1zm54.48 26.1q-2.04 0-3.51.09-1.47.09-2.61.27-1.14.18-2.01.45-.87.27-1.65.69-1.74.9-3.54 2.82-1.02 1.08-1.53 1.83t-1.11 2.13q-1.26-1.56-2.19-2.28-.93-.72-2.37-1.38-1.68-.72-3.45-1.14-1.77-.42-3.15-.42-2.28 0-3.78 1.29t-1.5 3.21q0 1.38 1.02 2.58 1.26 1.38 3.81 1.98 2.55.6 7.29.6 2.1 0 3.63-.12 1.53-.12 2.64-.45t1.86-.84q.75-.51 1.29-1.29 1.08-1.44 1.08-3.72v-.9h.72q.06.3.06.78 0 2.4-.9 4.41-.9 2.01-2.49 3.45-1.59 1.44-3.81 2.25-2.22.81-4.86.81t-4.83-.81q-2.19-.81-3.81-2.25t-2.52-3.39q-.9-1.95-.9-4.29 0-5.64 4.44-9.24l1.2-.96q.42-.36.78-.78.42-.48.48-.84 0-.12.03-.48t.03-.96v-4.08h-3.42q-1.56 0-2.07.6-.51.6-.51 2.46h-.66v-1.47q0-.63.06-1.2t.09-1.11q.03-.54.15-1.2.54-4.08 3.78-4.08h2.58v-3.96h-.06q-.18.06-.51.09t-.75.15q-.54.12-1.05.24t-1.71.3l-.12-.78q1.2-.24 2.13-.42.93-.18 1.8-.36l1.74-.36q.87-.18 1.95-.42 1.56-.36 2.61-.6 1.05-.24 1.86-.54.81-.3 1.59-.63t1.8-.87l.18-.12-11.52.54h-1.2q-3.24 0-4.5-3.24-.6-1.38-.99-3.36t-.39-3.36v-.27q0-.15.06-.45h.66v.42q0 .3.24.78.3.48.72.6t1.62.12h1.98l15.6-.42h.66q3.42 0 5.7.36 2.28.36 3.63 1.29t1.89 2.46q.54 1.53.54 3.87V58.2zm-9.06-21.48q0-1.56-.12-2.1t-.6-1.02q-.72-.78-1.92-.78l-1.98.06v23.28q.18.12.39.27.21.15.45.33.84.66 1.26 1.05.42.39 1.2 1.17h.06q.24-.18.6-.39.36-.21.66-.33V36.72zm-5.34-3.3l-.06.06-.66.42q-.12.06-.42.18t-.84.42q-.66.3-.72.36h-.06v17.46q-1.02.06-1.74.09t-1.26.09q-.54.06-1.02.12t-1.02.12q-1.08.24-1.95.6-.87.36-2.07 1.14l-.18.06h.18q1.08-.18 1.74-.3.66-.12 1.14-.15.48-.03.9-.06.42-.03.96-.03 1.56 0 3.18.33t3 .93q.3.18.51.27.21.09.33.15h.06V33.42zm55.5 22.62q-.9 1.2-1.41 1.83-.51.63-1.17 1.59-.54.84-1.02 1.53-.48.69-.96 1.44t-1.05 1.68q-.57.93-1.29 2.19l-2.28-1.32q-1.26-.72-2.04-1.14-.78-.42-2.1-1.08l-3.12-12.3h-11.04l-1.26 3.48q1.44.12 2.25.3t1.95.66q.66.3 1.14.57.48.27.9.6.42.33.84.78t.96 1.11l2.82-3.24.66.72-1.38 1.62q-.66.72-1.32 1.53t-1.44 1.71l-1.41 1.71q-.57.69-1.02 1.32-.45.63-.9 1.32-.45.69-1.05 1.65-.54-1.02-.84-1.5-.3-.48-.72-.96-2.34-2.7-5.46-2.7-2.04 0-3.3 1.11-1.26 1.11-1.26 2.85 0 2.58 2.1 3.6 1.44.66 3.72 1.11 2.28.45 4.56.45 8.16 0 8.16-5.82v-.39q0-.21-.06-.57l.84-.3q.06.3.06.51v.39q0 2.16-.78 4.05-.78 1.89-2.13 3.24-1.35 1.35-3.21 2.13-1.86.78-4.02.78-2.16 0-4.02-.75-1.86-.75-3.18-2.07-1.32-1.32-2.07-3.18-.75-1.86-.75-4.02 0-2.16.78-4.17t2.28-3.51q.96-.96 2.07-1.53 1.11-.57 3.27-1.11l7.98-23.1q-.66-1.86-1.23-2.82-.57-.96-1.59-1.86-1.68-1.5-3.54-1.5-.96 0-1.83.36-.87.36-1.5.99t-.99 1.47q-.36.84-.36 1.8 0 1.68 1.14 2.76 1.14 1.08 2.94 1.08 1.56 0 2.43-.75.87-.75.93-2.07 0-.54.06-.6v-.42h.72q0 .42.03.63.03.21.03.45 0 2.52-1.35 4.2-1.35 1.68-3.39 1.68-2.1 0-3.51-1.56-1.41-1.56-1.41-4.02 0-1.74.72-3.21t2.04-2.55q1.32-1.08 3.09-1.68 1.77-.6 3.93-.6 1.68 0 3.48.51t3.36 1.41q.78.48 1.44.93.66.45 1.26 1.02.6.57 1.23 1.32.63.75 1.41 1.83.12-1.02.21-1.56t.33-1.2q.18-.66.36-1.23t.6-1.53l.9.24-.24.72q-.6 1.74-.87 3.12-.27 1.38-.27 3 0 .9.12 1.95.12 1.05.36 2.37t.63 3.03q.39 1.71.93 3.93.66 2.76 1.23 5.01t.99 3.99q.3 1.2.51 2.01.21.81.42 1.44.21.63.42 1.08.21.45.45.93.54 1.08 1.38 1.08.66 0 1.44-.69.78-.69 1.56-1.89l.72.6zm-21.12-24l-4.5 12.6h7.62l-3.12-12.6zm59.28-2.4q-.78.42-1.14.66-.36.24-.66.6-.48.48-.6 1.02t-.12 2.04v17.28q0 1.74-.03 3.12-.03 1.38-.09 2.34-.12 3.24-.66 5.49t-1.68 4.29q-1.02 1.86-2.55 3.42-1.53 1.56-3.39 2.73t-3.99 1.86q-2.13.69-4.29.87v-1.02q1.8-.12 3-.69t2.28-1.89q.36-.48.63-.99t.51-.99q.3-.72.48-1.41t.3-1.74q.12-1.05.18-2.58t.12-3.93l.12-5.7V32.28l-2.34-2.76-2.28 2.04v26.58l.06-.06q.24-.24.48-.51t.54-.63q.66-.66 1.02-1.05t1.08-1.05l.54.66q-.9.96-1.59 1.65-.69.69-1.23 1.26-.54.57-1.02 1.14t-1.02 1.23l-2.88 3.48-1.68 2.04-1.86-2.04q-1.26-1.38-3.21-2.19t-4.05-.81q-2.28 0-3.63 1.08t-1.35 2.82q0 2.7 2.61 4.14 2.61 1.44 7.47 1.44 2.16 0 4.5-.36 1.5-.3 2.4-.66.9-.36 1.62-1.08.84-.84 1.17-1.89.33-1.05.45-2.97h.72q0 1.98-.18 3.03-.18 1.05-.72 2.25-1.26 2.88-3.72 4.38t-5.88 1.5q-2.52 0-4.59-.75t-3.54-2.1q-1.47-1.35-2.25-3.27t-.78-4.26q0-7.32 5.58-10.5.66-.42.84-.54.18-.12.48-.42l.54-.9q.12-.3.18-.51.06-.21.09-.48t.03-.69V46.5h-2.58q-2.22 0-3 .96-.3.3-.39.87-.09.57-.09 1.77v.72h-.66v-1.86q0-.78.03-1.62.03-.84.09-1.86.06-1.62.24-2.49.18-.87.6-1.65.96-1.68 3.48-1.68h2.28v-5.1q0-1.2-.33-1.65-.33-.45-1.35-.39l-1.2.06q-1.08.06-1.83-.33t-1.2-1.32q-.45-.93-.63-2.43t-.18-3.72V22.2h.96v.48q0 .78.27 1.02t1.11.24h.36l4.5-.18q.96-.06 1.77-.06h1.47q1.8 0 2.79.27t1.71.93q.54.48.69 1.17.15.69.15 2.55v5.34l12.54-11.28q.48.72.84 1.2t.72.9q.36.42.81.9.45.48 1.11 1.08.6.6 1.05.99.45.39.84.69.39.3.87.57.48.27 1.14.63zm-16.92 2.46l-3 2.88v17.34q-.9-.12-1.41-.15-.51-.03-.99-.03-1.2 0-2.34.18-1.2.18-2.19.48t-2.61 1.02l-.18.06h.18q.54 0 1.02-.03t.84-.03q2.7 0 5.28.69t3.96 1.77l1.38 1.08.06.06V32.1zm71.82-1.56q-.84.3-1.38.6-.54.3-.84.78-.3.48-.42 1.2t-.12 1.8v23.4q-5.82.3-9.3 2.16-1.38.72-2.64 2.1-.72.78-1.2 1.53t-1.26 2.25q-.66-.72-1.08-1.17-.42-.45-.75-.75t-.72-.54q-.39-.24-.93-.54v4.74q1.26.12 1.74.12h.96q3.54 0 5.64-1.8.54-.42.87-.84.33-.42.54-.96.21-.54.36-1.29t.27-1.83h.84v.54q0 2.46-.6 3.99-.6 1.53-1.98 2.97-1.02 1.02-2.4 1.8-.66.36-1.29.6t-1.35.39q-.72.15-1.59.24-.87.09-2.01.15v2.28l-9.06 1.5v-4.44q-7.26-2.34-7.26-9.54 0-1.56.42-2.88.42-1.32 1.26-2.64.48-.72.96-1.26t1.11-.96q.63-.42 1.47-.75t2.04-.69v-6.3h-2.76q-1.26 0-1.95.18t-1.17.66q-.3.3-.48.9-.06.24-.06.48t-.06.54q0 .6-.06.9h-.72q0-1.8.03-3.09.03-1.29.12-2.19.09-.9.24-1.56t.39-1.32q.96-2.7 4.98-2.7h1.5V33l-.84.06-1.5.12q-.24 0-.45.03-.21.03-.51.03-1.68 0-2.55-1.65-.87-1.65-.87-4.77 0-1.8.18-4.44h1.08q-.06.12-.06.36 0 1.62 1.92 1.62h.81q.51 0 1.05-.12l3.96-.54q.66-.12 1.26-.18t1.08-.06q2.52 0 3.51 1.02.99 1.02.99 3.6v6.84l13.5-12.54q.54 1.38.93 2.1.39.72 1.05 1.56.96 1.32 2.01 2.25 1.05.93 3.15 2.25zM399.48 33l-2.34-2.76-2.22 2.16v23.22q.84.66 1.41 1.08.57.42.99.78.42.36.81.75.39.39.93.99l.42-.18V33zm-5.34 0l-3.48 3.24v17.64q1.2.3 1.83.51.63.21 1.65.81V33zM381.6 60.24q-.72-.18-1.14-.24-.42-.06-.84-.06-1.74 0-2.97.87-1.23.87-1.23 2.13 0 .72.39 1.53t1.05 1.29q.78.6 1.86.96t2.88.66v-7.14zm72.78-16.14q0 4.8-1.56 8.94t-4.26 7.2q-2.7 3.06-6.39 4.8-3.69 1.74-7.95 1.74-4.14 0-7.74-1.65-3.6-1.65-6.27-4.5-2.67-2.85-4.17-6.75t-1.5-8.4q0-6.54 3.42-11.88 2.1-3.24 5.52-5.82 1.08-.78 1.95-1.35.87-.57 1.86-1.05.99-.48 2.16-.9 1.17-.42 2.79-.9l.3.78q-1.08.42-1.83.75t-1.35.72q-.6.39-1.05.84-.45.45-.93 1.05-.54.66-.9 1.41-.36.75-.66 1.53-.18.48-.27.87-.09.39-.21.87t-.21 1.14q-.09.66-.27 1.68 1.68-.78 2.91-1.38 1.23-.6 2.34-1.17 1.11-.57 2.19-1.17 1.08-.6 2.52-1.44 1.5-.84 2.61-1.5 1.11-.66 2.16-1.32t2.16-1.41q1.11-.75 2.61-1.77 1.26.9 2.19 1.59.93.69 1.62 1.41.69.72 1.29 1.53.6.81 1.26 1.89 1.74 2.88 2.7 6.36.96 3.48.96 7.26zm-7.98 4.56q0-2.1-.3-4.08t-.78-3.9q-.3-1.08-.57-1.89-.27-.81-.63-1.53t-.84-1.44q-.48-.72-1.2-1.68V62.7q.6-.72.99-1.23t.63-.81q1.26-2.04 1.98-5.22.72-3.18.72-6.78zm-5.16-15.54q-.42-.6-.66-.9-.24-.3-.72-.84t-.81-.84q-.33-.3-.99-.78v26.46l-11.76 3.42q1.02 2.64 3.51 4.23 2.49 1.59 5.61 1.59 3.6 0 5.82-1.92V33.12zM429 34.14l-4.08 2.1q-.12 2.1-.15 3.3-.03 1.2-.03 2.34 0 1.02.03 2.49.03 1.47.09 3.39 0 1.92.06 3.21t.18 2.43q.12 1.14.3 2.37.18 1.23.54 3.03l3.06-.96v-23.7zm63.6 7.2q-.84.48-1.2.72t-.84.6q-.54.36-.87.69-.33.33-.48.78-.15.45-.21 1.08-.06.63-.06 1.65v9.6q.6-.06.9-.06h1.35q.33 0 .93.06v1.02q-.66-.06-1.05-.09t-.75-.03q-2.64 0-5.31.6-2.67.6-4.53 1.62-1.62.84-3.12 2.4-.66.66-1.08 1.17-.42.51-.75 1.02t-.57 1.14q-.24.63-.54 1.53-.66-1.14-1.2-1.98-.54-.84-1.11-1.44-.57-.6-1.2-1.05-.63-.45-1.47-.87-1.38-.66-2.85-1.08-1.47-.42-2.67-.42-1.74 0-2.91 1.08-1.17 1.08-1.17 2.7 0 1.5.9 2.76.9 1.26 2.46 1.8 1.62.6 4.14.93 2.52.33 5.22.33 4.38 0 6.75-1.74t2.37-4.98h1.02q-.3 4.92-3.57 7.83t-8.61 2.91q-2.52 0-4.65-.81-2.13-.81-3.72-2.22-1.59-1.41-2.49-3.3-.9-1.89-.9-4.11 0-2.16.81-3.99t2.19-3.18q1.38-1.35 3.3-2.13 1.92-.78 4.2-.78 1.62 0 3.06.3t3.24 1.14V43.38q-.72.18-1.26.33-.54.15-.96.36-.42.21-.84.48t-.96.69q-.66.54-1.17 1.05-.51.51-.9 1.11-.39.6-.69 1.35-.3.75-.66 1.83-.42-1.32-1.08-2.52-.66-1.2-1.41-2.1-.75-.9-1.59-1.44-.84-.54-1.62-.54-.96 0-2.58 1.38l-.54-.78q.66-.36 1.08-.63.42-.27.69-.45.27-.18.51-.36t.54-.42q.84-.66 1.14-1.56.3-.9.3-2.58v-6.24q-.42.06-.69.06h-.51q-.54 0-1.08-.06t-1.44-.18v-.96q.84.12 1.35.15.51.03.99.03 2.7 0 5.34-.72 2.64-.72 4.68-1.92 1.62-.96 2.94-2.4.48-.48.84-.9.36-.42.69-.9.33-.48.66-1.05.33-.57.75-1.35.6 1.56 1.11 2.37.51.81 1.53 1.89 1.74 1.8 3.24 1.8 1.32 0 2.1-.96.36-.42.54-.99.18-.57.42-2.01h.9q-.3 4.5-2.64 7.14-2.34 2.64-6.06 2.64-.84 0-1.35-.18-.51-.18-1.47-.66v9.54q1.32-.12 2.01-.42.69-.3 1.71-1.26 1.08-.96 1.98-2.16.84-1.08 1.23-1.83t.87-2.13l.78 1.74 2.16 2.88q.84 1.08 1.44 1.56t1.14.48q1.08 0 2.4-1.14l.48.9zm-17.04-8.52q-.36-.24-.6-.39-.24-.15-.36-.27-.12-.12-.36-.39t-.72-.75q-.3-.36-.9-.9v7.68q0 1.32.12 2.01.12.69.48 1.35.36.78.84 1.11.48.33 1.5.45v-9.9zm4.26 15.12q0-1.56-.12-2.34-.12-.78-.42-1.2-.78-1.02-2.88-1.14v11.7q.72.54 1.2.87.48.33.84.66t.66.69q.3.36.72.9V47.94zm51.54-20.7q0 1.98-.6 3.66-.6 1.68-1.68 2.91-1.08 1.23-2.58 1.89-1.5.66-3.24.66h-1.08v26.88q3.24-2.46 4.74-5.46t1.62-7.08h.84v1.56q-.3 2.7-1.62 5.58-4.32 9-14.7 9-3.96 0-7.29-1.23t-5.73-3.45q-2.4-2.22-3.72-5.28-1.32-3.06-1.32-6.72 0-3.42 1.14-6.39 1.14-2.97 3.24-5.13 2.4-2.4 5.4-3.9 3-1.5 5.88-1.8v.9q-4.92.3-5.7 5.22l13.68-3.18q-2.1-.78-3.3-1.2-1.2-.42-2.52-1.08l-5.16-2.34q-1.92-.84-3.75-1.32-1.83-.48-3.09-.48-1.92 0-3.12 1.35-1.2 1.35-1.2 3.57v.78h-1.02q.12-2.58.72-4.26.6-1.68 1.98-3.3 1.92-2.28 4.44-3.33 2.52-1.05 5.94-1.05 2.7 0 5.34.75 2.64.75 6.12 2.49 3.48 1.8 4.32 2.16 1.08.48 2.58 1.02.72.24 1.38.24 1.2 0 1.68-.75t.54-2.67h.84v.78zm-9.96 9.06l-1.08-.12-2.4.72v20.28l-11.82 2.94q1.02 2.52 3.48 3.96t5.7 1.44q1.74 0 3.06-.39t3.06-1.41V36.3zm-12.54 2.76l-3.96.96q-.18 1.38-.3 2.4t-.18 1.95q-.06.93-.09 1.86t-.03 2.07q0 2.04.06 3.42t.18 2.55q.12 1.17.39 2.34t.75 2.79l3.18-.78V39.06z" fill-rule="evenodd" fill="#3F3F3F"/></svg>